<svg xmlns="http://www.w3.org/2000/svg" width="610" height="180" viewBox="0 0 610 180">
<defs>
  <radialGradient id="halo_d" cx="50%" cy="50%" r="50%">
    <stop offset="0%"  stop-color="#00D4FF" stop-opacity="0.55"/>
    <stop offset="35%" stop-color="#00D4FF" stop-opacity="0.28"/>
    <stop offset="65%" stop-color="#00D4FF" stop-opacity="0.08"/>
    <stop offset="100%" stop-color="#00D4FF" stop-opacity="0"/>
  </radialGradient>
  <radialGradient id="core_d" cx="50%" cy="50%" r="50%">
    <stop offset="0%"  stop-color="#00D4FF" stop-opacity="1.0"/>
    <stop offset="60%" stop-color="#00D4FF" stop-opacity="1.0"/>
    <stop offset="100%" stop-color="#00D4FF" stop-opacity="0.850"/>
  </radialGradient>
</defs>

<g fill="#EEF0F4">
<path transform="translate(40.000,160.000) scale(0.20000,-0.20000)" d="M18 0 202 700H432L616 0H480L442 154H192L154 0ZM223 276H411L326 617H308Z"/>
<path transform="translate(176.800,160.000) scale(0.20000,-0.20000)" d="M196 0 18 700H154L302 85H316L464 700H600L422 0Z"/>
<path transform="translate(310.400,160.000) scale(0.20000,-0.20000)" d="M18 0 202 700H432L616 0H480L442 154H192L154 0ZM223 276H411L326 617H308Z"/>
</g>
<circle cx="515.6" cy="151.6" r="54.40" fill="url(#halo_d)"/>
<circle cx="515.6" cy="151.6" r="17.00" fill="url(#core_d)"/>
</svg>
